<mxfile host="app.diagrams.net" modified="2024-05-25T10:22:38.864Z" agent="Mozilla/5.0 (Windows NT 10.0; Win64; x64) AppleWebKit/537.36 (KHTML, like Gecko) Chrome/125.0.0.0 Safari/537.36" etag="VhpQLK8q47nOg5fUi2Ko" version="24.4.8" type="github">
  <diagram name="페이지-1" id="geKBbEWEFcXSWuYg8slL">
    <mxGraphModel dx="1434" dy="780" grid="1" gridSize="10" guides="1" tooltips="1" connect="1" arrows="1" fold="1" page="1" pageScale="1" pageWidth="827" pageHeight="1169" math="0" shadow="0">
      <root>
        <mxCell id="0" />
        <mxCell id="1" parent="0" />
        <mxCell id="ENQD_48EzkkRwFqRb7_J-13" style="edgeStyle=orthogonalEdgeStyle;rounded=0;orthogonalLoop=1;jettySize=auto;html=1;exitX=0.5;exitY=1;exitDx=0;exitDy=0;" edge="1" parent="1" source="ENQD_48EzkkRwFqRb7_J-1">
          <mxGeometry relative="1" as="geometry">
            <mxPoint x="400" y="360" as="targetPoint" />
          </mxGeometry>
        </mxCell>
        <mxCell id="ENQD_48EzkkRwFqRb7_J-16" style="edgeStyle=orthogonalEdgeStyle;rounded=0;orthogonalLoop=1;jettySize=auto;html=1;exitX=1;exitY=0.5;exitDx=0;exitDy=0;entryX=0.5;entryY=1;entryDx=0;entryDy=0;" edge="1" parent="1" source="ENQD_48EzkkRwFqRb7_J-1" target="ENQD_48EzkkRwFqRb7_J-7">
          <mxGeometry relative="1" as="geometry" />
        </mxCell>
        <mxCell id="ENQD_48EzkkRwFqRb7_J-1" value="항공사" style="whiteSpace=wrap;html=1;aspect=fixed;" vertex="1" parent="1">
          <mxGeometry x="360" y="180" width="80" height="80" as="geometry" />
        </mxCell>
        <mxCell id="ENQD_48EzkkRwFqRb7_J-2" value="" style="whiteSpace=wrap;html=1;aspect=fixed;" vertex="1" parent="1">
          <mxGeometry x="130" y="350" width="80" height="80" as="geometry" />
        </mxCell>
        <mxCell id="ENQD_48EzkkRwFqRb7_J-3" value="" style="whiteSpace=wrap;html=1;aspect=fixed;" vertex="1" parent="1">
          <mxGeometry x="630" y="350" width="80" height="80" as="geometry" />
        </mxCell>
        <mxCell id="ENQD_48EzkkRwFqRb7_J-12" style="edgeStyle=orthogonalEdgeStyle;rounded=0;orthogonalLoop=1;jettySize=auto;html=1;exitX=0.5;exitY=0;exitDx=0;exitDy=0;entryX=0.5;entryY=1;entryDx=0;entryDy=0;" edge="1" parent="1" source="ENQD_48EzkkRwFqRb7_J-4" target="ENQD_48EzkkRwFqRb7_J-1">
          <mxGeometry relative="1" as="geometry" />
        </mxCell>
        <mxCell id="ENQD_48EzkkRwFqRb7_J-4" value="공항" style="whiteSpace=wrap;html=1;aspect=fixed;" vertex="1" parent="1">
          <mxGeometry x="360" y="360" width="80" height="80" as="geometry" />
        </mxCell>
        <mxCell id="ENQD_48EzkkRwFqRb7_J-5" value="" style="whiteSpace=wrap;html=1;aspect=fixed;" vertex="1" parent="1">
          <mxGeometry x="360" y="570" width="80" height="80" as="geometry" />
        </mxCell>
        <mxCell id="ENQD_48EzkkRwFqRb7_J-6" value="" style="whiteSpace=wrap;html=1;aspect=fixed;" vertex="1" parent="1">
          <mxGeometry x="630" y="570" width="80" height="80" as="geometry" />
        </mxCell>
        <mxCell id="ENQD_48EzkkRwFqRb7_J-18" style="edgeStyle=orthogonalEdgeStyle;rounded=0;orthogonalLoop=1;jettySize=auto;html=1;exitX=1;exitY=0.5;exitDx=0;exitDy=0;entryX=0;entryY=0.5;entryDx=0;entryDy=0;" edge="1" parent="1" source="ENQD_48EzkkRwFqRb7_J-7" target="ENQD_48EzkkRwFqRb7_J-17">
          <mxGeometry relative="1" as="geometry" />
        </mxCell>
        <mxCell id="ENQD_48EzkkRwFqRb7_J-22" style="edgeStyle=orthogonalEdgeStyle;rounded=0;orthogonalLoop=1;jettySize=auto;html=1;exitX=1;exitY=0.75;exitDx=0;exitDy=0;" edge="1" parent="1" source="ENQD_48EzkkRwFqRb7_J-7">
          <mxGeometry relative="1" as="geometry">
            <mxPoint x="640" y="210" as="targetPoint" />
          </mxGeometry>
        </mxCell>
        <mxCell id="ENQD_48EzkkRwFqRb7_J-7" value="각 항공사" style="whiteSpace=wrap;html=1;aspect=fixed;" vertex="1" parent="1">
          <mxGeometry x="510" y="100" width="90" height="90" as="geometry" />
        </mxCell>
        <mxCell id="ENQD_48EzkkRwFqRb7_J-9" value="항공사 &lt;br&gt;고유번호" style="ellipse;whiteSpace=wrap;html=1;" vertex="1" parent="1">
          <mxGeometry x="210" y="195" width="80" height="50" as="geometry" />
        </mxCell>
        <mxCell id="ENQD_48EzkkRwFqRb7_J-10" value="" style="endArrow=classic;html=1;rounded=0;entryX=1;entryY=0.5;entryDx=0;entryDy=0;exitX=0;exitY=0.5;exitDx=0;exitDy=0;" edge="1" parent="1" source="ENQD_48EzkkRwFqRb7_J-1" target="ENQD_48EzkkRwFqRb7_J-9">
          <mxGeometry width="50" height="50" relative="1" as="geometry">
            <mxPoint x="390" y="430" as="sourcePoint" />
            <mxPoint x="440" y="380" as="targetPoint" />
            <Array as="points">
              <mxPoint x="360" y="220" />
              <mxPoint x="320" y="220" />
            </Array>
          </mxGeometry>
        </mxCell>
        <mxCell id="ENQD_48EzkkRwFqRb7_J-17" value="항공사 명" style="ellipse;whiteSpace=wrap;html=1;" vertex="1" parent="1">
          <mxGeometry x="650" y="115" width="90" height="60" as="geometry" />
        </mxCell>
        <mxCell id="ENQD_48EzkkRwFqRb7_J-21" value="" style="endArrow=classic;startArrow=classic;html=1;rounded=0;exitX=0.5;exitY=0;exitDx=0;exitDy=0;entryX=0;entryY=0.5;entryDx=0;entryDy=0;" edge="1" parent="1" source="ENQD_48EzkkRwFqRb7_J-9" target="ENQD_48EzkkRwFqRb7_J-7">
          <mxGeometry width="50" height="50" relative="1" as="geometry">
            <mxPoint x="390" y="430" as="sourcePoint" />
            <mxPoint x="440" y="380" as="targetPoint" />
            <Array as="points">
              <mxPoint x="250" y="145" />
            </Array>
          </mxGeometry>
        </mxCell>
        <mxCell id="ENQD_48EzkkRwFqRb7_J-23" value="직원" style="ellipse;whiteSpace=wrap;html=1;" vertex="1" parent="1">
          <mxGeometry x="610" y="210" width="60" height="50" as="geometry" />
        </mxCell>
        <mxCell id="ENQD_48EzkkRwFqRb7_J-25" value="" style="ellipse;whiteSpace=wrap;html=1;" vertex="1" parent="1">
          <mxGeometry x="580" y="20" width="120" height="80" as="geometry" />
        </mxCell>
      </root>
    </mxGraphModel>
  </diagram>
</mxfile>
